<svg id="Layer_1" data-name="Layer 1" xmlns="http://www.w3.org/2000/svg" viewBox="0 0 216.14 256.17"><defs><style>.cls-1{fill:#fefefe;}.cls-2{fill:#96bf24;}.cls-3{fill:#9cc22f;}.cls-4{fill:#b3d05f;}.cls-5{fill:#bfd879;}.cls-6{fill:#a9ca4b;}.cls-7{fill:#fcfdfa;}.cls-8{fill:#fdfdfb;}</style></defs><title>Android</title><path class="cls-1" d="M199,364c0-30.57,0-61.14-.07-91.71,0-2.66.38-3.4,3.26-3.38,19.6.17,39.21.09,58.81.09,2.74,6.47,6.63,12.31,10.1,18.38,3.36,5.87,3.2,6.75-2.27,10.5q-23.87,16.35-29.41,44.7c-1,5.27-.52,6,4.72,6q62.75.08,125.5,0c4.65,0,5.36-.84,4.43-5.43-3.59-17.65-12-32.34-26.7-43.17-1.48-1.09-3-2.18-4.53-3.12-3.57-2.13-4.11-4.68-1.93-8.32Q346.69,278.92,352,269c20,0,40,.05,60-.07,2.5,0,3.07.57,3.07,3.07-.1,31-.06,62-.06,93a1.21,1.21,0,0,1-1.52-.1,16.52,16.52,0,0,1-2.53-3.68c-3.9-6-9.62-8.15-16.41-6.28-5.91,1.63-9.79,6.6-10.08,13.35-.26,6.14-.07,12.3-.08,18.45q0,22.44,0,44.88a21.73,21.73,0,0,0,1.49,8.78c4.34,10.13,17,12,24.06,3.47,1.27-1.53,2-3.43,3.55-4.8A1.22,1.22,0,0,1,415,439c0,27.67,0,55.33.07,83,0,2.5-.56,3.08-3.07,3.07-25.33-.11-50.67-.07-76-.07,0-2.13,1.85-2.61,3.17-3.45a14.81,14.81,0,0,0,7.27-13.39c0-9-.07-18,0-27,.08-6.53,1.1-7.49,7.56-7.7,17.26-.55,21.4-4.8,21.4-22q0-43.75,0-87.49c0-7.14-.25-7.41-7.2-7.41q-61.49,0-123,0c-6.37,0-6.69.34-6.7,6.87q0,46.24,0,92.49c0,11.61,5.49,17.12,17.06,17.52,9.74.33,9.9.49,9.92,10.41,0,7.33.13,14.67,0,22-.15,6.44,1.67,11.79,7.1,15.64,1.17.83,2.57,1.68,2.39,3.52-24.26,0-48.52-.06-72.77.08-2.8,0-3.31-.6-3.3-3.34.13-27.58.08-55.16.08-82.74a1.14,1.14,0,0,1,1.49.15c1.17,1.21,1.75,2.83,2.8,4.12,3.62,4.45,8.18,6.83,14,5.65s9.83-4.63,11.3-10.62a43.1,43.1,0,0,0,1-9.9c.21-20-1.62-39.87-1.09-59.83.18-6.88-3.71-12-9.5-13.67-6.58-1.88-12.91.61-16.76,6.63a10.78,10.78,0,0,1-1.77,2.4A1.21,1.21,0,0,1,199,364Z" transform="translate(-198.92 -268.91)"/><path class="cls-2" d="M275,525c-8.8-4.5-11.69-11.77-11-21.4.57-8.45,0-17,.09-25.47,0-2.58-.72-3.62-3.37-3.44a71.06,71.06,0,0,1-8,0c-9.11-.39-15.72-7-15.74-16-.08-33.31,0-66.62-.1-99.93,0-3.26,1.15-3.8,4-3.79q66,.12,131.91,0c3.25,0,4.2.86,4.19,4.17-.12,33,0,66-.1,98.93,0,9.69-6.55,16.3-16.19,16.67a47.79,47.79,0,0,1-7.49,0c-4-.49-5.52.72-5.32,5.07.4,8.64-.17,17.33.29,26,.51,9.55-3.24,15.94-12.18,19.28h-8c-9.39-3-12.34-7-12.43-17.18-.08-8.66-.09-17.33,0-26,0-3.75-1.26-5.62-5.22-5.4-3,.16-6,.12-9,0s-4.05,1.23-4,4.21c.12,9.16.32,18.33-.2,27.49a21.79,21.79,0,0,1-3.85,11.7c-2.53,3.57-6.28,4.63-10.3,5.18Z" transform="translate(-198.92 -268.91)"/><path class="cls-2" d="M352,269c.86,2-.2,3.49-1.12,5.07-3,5.17-5.79,10.49-9.06,15.49-1.86,2.85-1.67,4.14,1.36,6,18,11.15,28.6,27.37,32.41,48.13,1.06,5.79,1,5.88-4.83,5.88-42.78,0-85.56,0-128.35.08-4.28,0-5.7-.59-4.83-5.46,3.72-20.85,14.3-37,32.1-48.35,3.16-2,3-3.32,1.3-6-3.28-5.2-6.19-10.62-9.3-15.93-.91-1.56-2.24-3-.69-4.9h2c4,3,5.51,7.82,7.93,11.93,5.18,8.79,5.13,8.91,14.54,6.11,15.34-4.57,30.58-4.48,45.57,1.2,4.15,1.57,6.13.63,8.29-3.17,3.16-5.57,5.32-11.91,10.67-16.06Z" transform="translate(-198.92 -268.91)"/><path class="cls-1" d="M350,269c-3.81,6.6-7.72,13.15-11.39,19.82-1.26,2.29-2.31,2.92-5,1.83-18.23-7.51-36.51-7.45-54.68.29-1.93.82-3.11,1.12-4.33-1.17-3.73-7-7.74-13.85-11.64-20.77Z" transform="translate(-198.92 -268.91)"/><path class="cls-1" d="M283,525c9.57-3.71,12.48-7.94,12.53-18.4,0-9.48.14-19,0-28.45,0-2.6.51-3.58,3.22-3.48,4.82.18,9.66.21,14.47,0,3-.13,3.61,1.12,3.58,3.81-.1,8.65.47,17.33-.07,25.94C316.12,513.94,319.08,521,328,525Z" transform="translate(-198.92 -268.91)"/><path class="cls-3" d="M199,364a2.53,2.53,0,0,0,.93-.16c1.54,1.36,1.6,3.23,1.62,5q.16,23.61,0,47.21a8.8,8.8,0,0,1-.9,4.34A1.21,1.21,0,0,1,199,421Z" transform="translate(-198.92 -268.91)"/><path class="cls-4" d="M415,439a6.29,6.29,0,0,0-.93.1c-1.4-1.2-1.57-2.88-1.59-4.53-.12-12.89-.18-25.78,0-38.68a7,7,0,0,1,.84-3.34A1.2,1.2,0,0,1,415,392Z" transform="translate(-198.92 -268.91)"/><path class="cls-5" d="M415,392l-.9,0a4.51,4.51,0,0,1-1.54-3.55q-.42-10,0-19.93a4.57,4.57,0,0,1,1.52-3.56l.92.09Z" transform="translate(-198.92 -268.91)"/><path class="cls-6" d="M199,421h1a22.14,22.14,0,0,1-.1,18.18A2.91,2.91,0,0,1,199,439Z" transform="translate(-198.92 -268.91)"/><path class="cls-2" d="M414.08,364.91q0,13.52,0,27,0,23.57,0,47.15c-3.45,8.53-10,12.81-17.57,11.45-8.47-1.53-13.38-7.77-13.4-17.16q-.08-31.45-.09-62.9c0-9.46,4.58-15.89,12.39-17.43C403.87,351.4,410.54,355.62,414.08,364.91Z" transform="translate(-198.92 -268.91)"/><path class="cls-2" d="M199.89,439.19q.05-9.09.1-18.18,0-28.58-.06-57.17c2.48-7.74,8.65-11.77,16.73-10.93a14.89,14.89,0,0,1,13.47,14.36c.32,22.64.49,45.28.33,67.92-.06,8.73-6.23,14.75-14.61,15.56C208.79,451.43,202.16,446.63,199.89,439.19Z" transform="translate(-198.92 -268.91)"/><path class="cls-7" d="M274.31,312c3.19.48,5.7,2.33,5.74,6.29s-2.3,6.12-6.07,6.49c-3.41.33-6.8-3.17-6.69-6.55A6.83,6.83,0,0,1,274.31,312Z" transform="translate(-198.92 -268.91)"/><path class="cls-8" d="M344.28,317.92a6.64,6.64,0,0,1-6.32,6.89,6.37,6.37,0,0,1-6.26-6.46c.17-3.92,2.36-6.3,6.29-6.31S344,314.49,344.28,317.92Z" transform="translate(-198.92 -268.91)"/></svg>