<svg id="Layer_1" data-name="Layer 1" xmlns="http://www.w3.org/2000/svg" viewBox="0 0 256.19 256.17"><defs><style>.cls-1{fill:#fefefe;}.cls-2{fill:#b2b2b2;}.cls-3{fill:#9d3d34;}.cls-4{fill:#c3473a;}.cls-5{fill:#b3b8b9;}.cls-6{fill:#c44134;}.cls-7{fill:#9c372d;}.cls-8{fill:#d4c1bf;}.cls-9{fill:#d99891;}.cls-10{fill:#c03c2f;}.cls-11{fill:#9c372e;}.cls-12{fill:#f1f1f1;}.cls-13{fill:#9e3d34;}.cls-14{fill:#9e3a31;}.cls-15{fill:#b3918e;}.cls-16{fill:#b3b8b8;}.cls-17{fill:#f4fbfc;}.cls-18{fill:#c24032;}.cls-19{fill:#dfb0ab;}.cls-20{fill:#f4fafb;}</style></defs><title>Angular</title><path class="cls-1" d="M309,269c40.83,0,81.67,0,122.5-.08,3,0,3.59.6,3.58,3.58q-.15,124.5,0,249c0,3-.6,3.59-3.58,3.58Q368.25,524.9,305,525c-.2-2.2,1.66-2.72,3-3.46,27.4-14.79,54.71-29.74,82.09-44.57,4.24-2.3,8.31-4.95,12.74-6.89,3.25-1.43,4.67-3.9,5.13-7.34,2-15,3.73-30.06,5.53-45.1q4.3-35.94,8.6-71.88,1.64-13.88,3.39-27.75c.77-6.1.24-6.75-5.49-8.72q-52.92-18.19-105.74-36.65C312.3,271.94,309.43,272.12,309,269Z" transform="translate(-178.89 -268.92)"/><path class="cls-1" d="M303,525c-40,0-79.92,0-119.88.08-3.16,0-4.23-.28-4.23-4q.21-124.13,0-248.25c0-3.68,1.08-4,4.23-4q60.94.18,121.88.08c-.72,3.29-3.8,3.41-6.11,4.21-19,6.6-38,13.42-57,20.11-16.17,5.7-32.37,11.31-48.53,17.06-4.08,1.45-5.23,3.63-4.7,7.86q6.55,52.74,12.78,105.53c1.62,13.71,3.35,27.41,4.91,41.13.3,2.67,1.82,4.08,4,5.31q32.94,18.86,66,37.47,11.74,6.64,23.41,13.39C301.25,521.92,303.2,522.64,303,525Z" transform="translate(-178.89 -268.92)"/><path class="cls-2" d="M303,525c-8.06-6.18-17.27-10.45-26-15.48-22.9-13.19-46-26.12-69-39.08a5.31,5.31,0,0,1-3-4.67c-1.78-15.8-3.79-31.58-5.66-47.37-1.47-12.34-2.79-24.7-4.27-37-1.85-15.29-3.82-30.57-5.7-45.85-.81-6.58-1.52-13.17-2.3-19.76-.35-3,.42-4.7,3.71-5.84Q236,294.26,281,278.12c8-2.9,16.55-4.71,24-9.12h4c10.51,4.91,21.68,8,32.59,11.84Q382.2,295,422.93,308.93c3.31,1.13,4.7,2.2,4.11,6.29-2.33,16.22-4.12,32.52-6,48.8-2.12,18.26-4,36.54-6.21,54.79-1.85,15.45-4,30.85-5.85,46.3a5.77,5.77,0,0,1-3.43,4.94q-36,19.43-71.85,39c-9.61,5.24-19.13,10.63-28.68,16Z" transform="translate(-178.89 -268.92)"/><path class="cls-3" d="M403.9,399.8c-2.37,12-3.15,24.18-4.91,36.25-.59,4.06-1.26,8.11-1.89,12.16-.62-.29-.35-1-.71-1.44.31,1-.28,2.25.56,3.21,0,2.11.32,4.27-.86,6.22-.61-.29-.36-1-.7-1.43.3,1-.28,2.25.56,3.21.46,2.21-.77,3.28-2.55,4.27q-43.31,23.9-86.59,47.87A13.68,13.68,0,0,1,304,511a7.07,7.07,0,0,1-1.59-5.11c0-27.95-.22-55.89.1-83.84a8.08,8.08,0,0,1,.15-1,6.28,6.28,0,0,1,.73-1.81,3.75,3.75,0,0,1,1.52-1.13,38.58,38.58,0,0,1,12.82-.17c6.78,1.41,13.64.52,20.45.58,2.87,0,3.3,2.51,4.11,4.38,3.93,9,8.06,17.91,11.73,27,1.37,3.41,3.32,4.85,7,5,4.8.15,9.57,1,14.42.94,3.74,0,4.4-1.15,2.75-4.4-5.8-11.42-11-23.15-16.4-34.75-16-34.21-32.11-68.36-47.94-102.64q-4.81-10.42-9.74-20.79a23.2,23.2,0,0,1-.8-2.27c-.63-2.73-1.42-5.47.62-8,2.81-.34,5.14,1.19,7.63,2q47.71,16.21,95.4,32.51c6.78,2.31,6.68,2.3,5.71,9.54-1.95,14.49-3.78,29-5.63,43.51a31.92,31.92,0,0,0-.08,3.49c.48.64.56,1.25-.14,1.79A150.21,150.21,0,0,0,404.05,398C404.53,398.66,404.62,399.26,403.9,399.8Z" transform="translate(-178.89 -268.92)"/><path class="cls-4" d="M304,420q0,45.49,0,91c-12.47-5.88-24.2-13.14-36.29-19.73-16.34-8.91-32.48-18.2-48.85-27.06-3.45-1.87-5-4-5.39-7.9-2.34-22.78-5-45.52-7.49-68.28a2.14,2.14,0,0,0,.48-1.78c0-.41.19-.83-.08-1.22a1.26,1.26,0,0,1-.53,1.23c-2.12-9.75-2.48-19.72-3.8-29.57-1.44-10.7-2.45-21.45-3.81-32.16-.33-2.61-.2-4.3,2.74-5.35q50.31-17.81,100.55-35.81a13.48,13.48,0,0,1,2.44-.4c0,2.78-.32,5.6.83,8.27-.79,1-.73,2.2-1,3.34-10.24,23.69-21.06,47.12-31.57,70.68-12.48,28-25.12,55.88-37.54,83.88-2.39,5.39-2.2,5.55,3.52,5.58,4.33,0,8.67-.19,13,.06,3.92.23,6.11-1.23,7.5-5,3.26-8.74,6.88-17.33,10.37-26,.79-2,1.26-4.21,3.5-5.26a4.52,4.52,0,0,1,1.7,0c7.84.2,15.67,0,23.5.1C300,418.64,302.21,418.36,304,420Z" transform="translate(-178.89 -268.92)"/><path class="cls-5" d="M406.91,375.81l.14-1.79c1.29,1.09,1,2.47.72,3.92C406.48,377.58,407.25,376.48,406.91,375.81Z" transform="translate(-178.89 -268.92)"/><path class="cls-6" d="M205.89,386.22l.4-3.53c.84,2.72,1.11,4.09-.28,5.3Z" transform="translate(-178.89 -268.92)"/><path class="cls-5" d="M403.9,399.8l.15-1.78c1.41,1.07.8,2.51.93,4C403.48,401.58,404.24,400.47,403.9,399.8Z" transform="translate(-178.89 -268.92)"/><path class="cls-7" d="M397,450c-1.3-1.09-1-2.47-.73-3.93,1.29.37.53,1.48.87,2.15Z" transform="translate(-178.89 -268.92)"/><path class="cls-7" d="M396,458c-1.42-1.07-.81-2.51-.92-4,1.48.42.73,1.53,1.07,2.2Z" transform="translate(-178.89 -268.92)"/><path class="cls-2" d="M318,419l-13-.23a4.25,4.25,0,0,1-1-1.51c-.44-6.59-.95-13.18.3-19.75a2.05,2.05,0,0,1,1.3-1c6.9.14,13.81.28,20.7,0a2.39,2.39,0,0,0,1-.72,3.23,3.23,0,0,0-.46-2.38c-8-16.29-15.64-32.76-23.48-49.14a5.55,5.55,0,0,1,.14-1.72c.28-14.24,0-28.47.14-42.7,0-2.43-.39-5,1.51-7.06q15.42,32.71,30.83,65.42,21.83,46.53,43.57,93.1c2.64,5.64,2.66,5.69-3.57,5.55-5.48-.12-11-.63-16.45-.5-3.24.08-4.68-1.17-5.86-4-4.27-10.29-8.78-20.48-13.22-30.69a21.86,21.86,0,0,0-1.49-2.49A112.12,112.12,0,0,1,318,419Z" transform="translate(-178.89 -268.92)"/><path class="cls-8" d="M305.12,292.76c0,15.37-.06,30.74-.14,46.11,0,1.75.61,3.67-.9,5.18-1.94-1.84-1.63-4.28-1.64-6.56-.07-12,0-24-.08-36,0-2.86,1.24-5.52.9-8.37a2,2,0,0,1,1.59-1.93Z" transform="translate(-178.89 -268.92)"/><path class="cls-9" d="M305,418.08q0,.37,0,.73l-1,.39c-10.31.56-20.63.34-30.95.11a.61.61,0,0,1-.1-.57,1.42,1.42,0,0,1,.86-1.5c9.86-1.12,19.74-.78,29.61-.21A6.88,6.88,0,0,1,305,418.08Z" transform="translate(-178.89 -268.92)"/><path class="cls-10" d="M273.05,419.3c10.31-.57,20.63-.35,30.95-.11q0,.4,0,.79c-8.72,0-17.45,0-26.17,0C276.22,420,274.52,420.43,273.05,419.3Z" transform="translate(-178.89 -268.92)"/><path class="cls-11" d="M318,419c7-.16,14-.68,20.93.1A48.77,48.77,0,0,1,318,419Z" transform="translate(-178.89 -268.92)"/><path class="cls-12" d="M273,418a1.81,1.81,0,0,0,0,.76c-5.22,10.59-9.06,21.75-13.36,32.71-1.4,3.58-3.19,4.75-6.91,4.58-5.64-.26-11.31.07-17,.13s-5.62,0-3.36-5.09q19-42.33,38-84.66,16.45-36.64,32.92-73.27c1.36,1.59.72,3.49.73,5.25.07,15.22.07,30.44.08,45.66a1.6,1.6,0,0,0,0,.92,2.43,2.43,0,0,1,.35,1.41c-4.07,12-9.78,23.43-14.4,35.26-1.44,3.68-3,7.32-4.71,10.9a25.25,25.25,0,0,1-1.14,2.27c-.48,1.34.37,1.63,1.43,1.75,4.46.11,8.89,0,13.33.07,1.93,0,4-.27,5.43,1.6.17,6.2.26,12.39,0,18.58-4.66,1.49-9.45.33-14.17.65C284.42,417.85,278.66,416.86,273,418Z" transform="translate(-178.89 -268.92)"/><path class="cls-13" d="M303.92,345.8a2.62,2.62,0,0,1,.15-.82c.5.41,1.22.71,1.47,1.24q11.31,23.86,22.53,47.76c-1.08,2.48-3.36,2.36-5.46,2.37-5.74,0-11.48.22-17.21-.17a1.67,1.67,0,0,1-1.72-.43,5,5,0,0,1-.86-1.71C302.62,377.95,301,361.82,303.92,345.8Z" transform="translate(-178.89 -268.92)"/><path class="cls-14" d="M305,395.82c5.34-1.82,10.85-.39,16.26-.8,2.3-.17,4.68.27,6.8-1.06a2.14,2.14,0,0,1,.92,2A54.07,54.07,0,0,1,305,395.82Z" transform="translate(-178.89 -268.92)"/><path class="cls-15" d="M305,395.82l24,.15v1a116.92,116.92,0,0,1-23,0l-1-.05a.75.75,0,0,1-1.11,0l-.17-.63.29-.59Z" transform="translate(-178.89 -268.92)"/><path class="cls-16" d="M306,397l23,0A56.18,56.18,0,0,1,306,397Z" transform="translate(-178.89 -268.92)"/><path class="cls-16" d="M304.23,396.84l.77.15q0,10.54,0,21.09l-1-.1q-.51-.34-.32-.66c.12-.21.24-.31.35-.31q0-9.5,0-19a.68.68,0,0,1-.3-.93Z" transform="translate(-178.89 -268.92)"/><path class="cls-17" d="M304,417a2.25,2.25,0,0,1,0,1H273c.5-2,2.09-.91,3.1-.92C285.37,417,294.69,417,304,417Z" transform="translate(-178.89 -268.92)"/><path class="cls-4" d="M303.92,345.8,304,395c-5.74,2.63-11.71,1.25-17.6.93-1.51-.08-2-1.54-2.3-2.91Z" transform="translate(-178.89 -268.92)"/><path class="cls-18" d="M284.1,393c1.28,1.82,3.09,2.06,5.16,2,4.91-.11,9.82,0,14.74,0q0,.37,0,.75v.36c-6.52,1.72-13.13.78-19.7.55a1.4,1.4,0,0,1-1.38-1.69Z" transform="translate(-178.89 -268.92)"/><path class="cls-19" d="M282.94,395c4,2.21,8.4.59,12.59,1,2.81.26,5.66.12,8.49.16a1.83,1.83,0,0,0,.21.72l-.25.2a100.26,100.26,0,0,1-21,0C282.16,396.39,282,395.71,282.94,395Z" transform="translate(-178.89 -268.92)"/><path class="cls-20" d="M283,397h21a2.21,2.21,0,0,1,0,1C297,397.45,289.94,399.15,283,397Z" transform="translate(-178.89 -268.92)"/></svg>