<svg id="Layer_1" data-name="Layer 1" xmlns="http://www.w3.org/2000/svg" viewBox="0 0 256.19 256.19"><defs><style>.cls-1{fill:#fefefe;}.cls-2{fill:#2d6595;}.cls-3{fill:#2e6695;}.cls-4{fill:#2f6796;}.cls-5{fill:#215f92;}.cls-6{fill:#356c99;}.cls-7{fill:#346b98;}.cls-8{fill:#19598d;}.cls-9{fill:#0f538b;}.cls-10{fill:#1b5a8d;}.cls-11{fill:#1e5b8f;}.cls-12{fill:#2e6796;}.cls-13{fill:#1e6092;}.cls-14{fill:#0c5189;}.cls-15{fill:#236394;}.cls-16{fill:#266394;}.cls-17{fill:#175b8e;}.cls-18{fill:#13558a;}.cls-19{fill:#1c5f94;}.cls-20{fill:#2a6595;}.cls-21{fill:#286294;}.cls-22{fill:#12558a;}.cls-23{fill:#195c8f;}.cls-24{fill:#11558a;}.cls-25{fill:#1c5a8e;}.cls-26{fill:#0e5388;}.cls-27{fill:#10568a;}.cls-28{fill:#236494;}.cls-29{fill:#195a8e;}.cls-30{fill:#13568b;}.cls-31{fill:#11548a;}.cls-32{fill:#14558b;}.cls-33{fill:#10558a;}.cls-34{fill:#13548b;}.cls-35{fill:#14548a;}.cls-36{fill:#0f548b;}.cls-37{fill:#206092;}.cls-38{fill:#0f5189;}.cls-39{fill:#115489;}.cls-40{fill:#11598b;}.cls-41{fill:#10548a;}.cls-42{fill:#0e5289;}.cls-43{fill:#125489;}.cls-44{fill:#245f92;}.cls-45{fill:#10548b;}.cls-46{fill:#216193;}.cls-47{fill:#236293;}.cls-48{fill:#0e548b;}.cls-49{fill:#346896;}.cls-50{fill:#356996;}.cls-51{fill:#386a97;}.cls-52{fill:#15558b;}.cls-53{fill:#376996;}</style></defs><title>Apache Impala</title><path class="cls-1" d="M179,525q0-126-.1-252c0-3.42.67-4.1,4.1-4.1q124,.18,248,0c3.42,0,4.1.67,4.1,4.1q-.18,124,0,248c0,3.42-.67,4.1-4.1,4.1Q305,524.91,179,525Z" transform="translate(-178.9 -268.9)"/><path class="cls-2" d="M338.13,439.07a20.61,20.61,0,0,0-7.39,12.48c-.92,4.49.17,9.22-1.64,13.59-1.16,1.21-.6,2.53-.22,3.83.78,2.1-1.12,3.2-1.8,4.75.68,3-.76,5.8-1,8.72-1,9.16-3.59,17.88-8.51,25.7-1.42,2.25-3.5,4.41-6.54,4.88-4.24,1.44-1.35-3.19-3.21-3.77l-.92-1.7c-.25-1.14-2.23-1.84-.88-3.39a7.21,7.21,0,0,0,.07-7.17c.37-1.45,2.09-1.29,2.78-2.36,1.14-1.2,2.53-2.2,3-3.91a2.34,2.34,0,0,1,1.73-1.78c2-3.15.12-6-.66-8.94a4.94,4.94,0,0,1-.82-4,8.42,8.42,0,0,0,.75-1.91c.18-3.7.18-7.39,0-11.08a9.49,9.49,0,0,0-.73-1.92,44.66,44.66,0,0,1,6.28-16.92c1.61-2.68,3-5.49,4.48-8.24a5.31,5.31,0,0,0-.12-5.59c-2.58-6.47-7.46-11.86-8.89-18.87-1.06-3.4.28-7-.78-10.38,1.48-10.74,7.31-19.27,13.6-27.7,4.21-5.65,10.33-9.72,13.29-16.35,1.16-3.22,2-6.48,1.14-9.94a3.73,3.73,0,0,1,.66-3.37c1.69.44.37-1.24,1.06-1.52.08-4.28.47-8.55-.23-12.8a7.93,7.93,0,0,1-.53-1.44c-1-5-.24-10.28-3-14.9l-3-10c1.57-1.51,3.13-.53,4.69,0a62.71,62.71,0,0,1,6.92,15.05c-.73,2.53.74,4.63,1.35,6.89,1.53,1,1.25,2.67,1.71,4.08-1.17,3.16,1.13,6.16.44,9.31,0,6.26.28,12.52-.11,18.77a10,10,0,0,1,.33,1.52c-.57,2.4-1.67,4.76-.59,7.29.09,4-4.1,4.08-5.82,6.45a48.76,48.76,0,0,1-4.27,4.6c-1.48,1.2-3.05,2.32-3.69,4.25-5.4,8-11.77,15.57-12.13,25.94-.07,2.11-.55,4.87,2,5.49,1.73.42,3.55-1.07,5.12-2.56,7.56-7.15,13-15.94,19.21-24.14,2.6-.74,2.57,1.2,2.64,2.75a57.28,57.28,0,0,1-.83,10.57,18.24,18.24,0,0,1-4.38,11.7,24,24,0,0,0-4.71,4.86c-4.35,2.85-7.44,6.84-10.14,11.17-.91,1.64-1.34,3.29,0,4.94l1.24,3.66C335.82,437,337.69,437.41,338.13,439.07Z" transform="translate(-178.9 -268.9)"/><path class="cls-2" d="M272.94,304c-1,4.09-1.25,8.44-3.84,12-1.18,2.27-.64,4.6-.27,6.93a3.05,3.05,0,0,1-.71,3.08,3.31,3.31,0,0,0-1,1.93c-.25,5.19-.09,10.38-.09,15.55.4.74-.34,2,1.09,2.3a3.44,3.44,0,0,1,.71,3.25c-.36,2.32-.93,4.66.29,6.92,2.07,6.85,8,10.7,12.25,15.89,5.56,6.83,10.65,14,12.73,22.76.61,1.29.22,2.7.47,4,.13.65.49.83.24.21,0,0,.25-.13.39-.19l.65,2.38a19.51,19.51,0,0,0-.07,7.88c-.84,2.67-3,4.21-5.11,5.72-1.69,1.23-4,2.86-5.74,2-2-1-.76-3.74-.79-5.74.4-1.6.9-3.21-.3-4.71-2.76-11.91-8.92-22-16.9-31a15.2,15.2,0,0,0-6.16-6.12l-.85-.83c-.61-1.86-.58-3.85-1.11-5.72a4.88,4.88,0,0,1-.27-2,9,9,0,0,0,.43-3.62c-.56-.27-.74.41-1.16.46a42,42,0,0,1,0-18.59,3.78,3.78,0,0,1,.92.53,4.24,4.24,0,0,0,0-2.83c-.35-.76-.13-1.67-.64-2.38a76.69,76.69,0,0,1,10.38-30.21C270,303.11,271.52,302.63,272.94,304Z" transform="translate(-178.9 -268.9)"/><path class="cls-3" d="M264.13,408c-3.18-3.12-4.65-7.17-6-11.26-.35-1.07-.62-2.35.6-3.16,1.55-1,2,.7,2.66,1.33,5.35,5,8.28,11.66,11.5,18.08-1.25,1.54-2.66.15-4,.23l-2-2A6.25,6.25,0,0,0,264.13,408Z" transform="translate(-178.9 -268.9)"/><path class="cls-4" d="M287,437c3.28,2.9,6.35,5.91,6.07,10.81.68,1.94.29,2.91-2,2.18-.46-.87-1-2.53-1.37-2.49-7.22.86-7.49-6-10.75-9.51C281.55,436.91,284.3,437.19,287,437Z" transform="translate(-178.9 -268.9)"/><path class="cls-5" d="M339.16,313c2.92.95,2.46,3.84,2.63,5.76.27,3.11.91,6.14,1.21,9.23a1.19,1.19,0,0,1-1.84,0C341.25,322.91,339.82,318,339.16,313Z" transform="translate(-178.9 -268.9)"/><path class="cls-6" d="M272.94,304l-4.42-.16a7,7,0,0,1,1.14-2.1c1.4-1.23,2-4.77,4.3-3.21C275.88,299.79,274.16,302.27,272.94,304Z" transform="translate(-178.9 -268.9)"/><path class="cls-7" d="M340.81,303c-1.57,1.08-3.12-.41-4.69,0l-1.2-4c.31-1,.2-2.47,2-2A18.34,18.34,0,0,1,340.81,303Z" transform="translate(-178.9 -268.9)"/><path class="cls-8" d="M351,338c-.51-3-2-5.94-.18-9,.75,4.12,1.86,8.2,1.33,12.46.1,2,1.56,4.21-1.11,5.64A18.75,18.75,0,0,1,351,338Z" transform="translate(-178.9 -268.9)"/><path class="cls-9" d="M268.12,345.81c-1.5,1.26-.89-.39-1.15-.84a72.78,72.78,0,0,1,0-18l1.15-1Q268.12,335.92,268.12,345.81Z" transform="translate(-178.9 -268.9)"/><path class="cls-10" d="M341.16,328H343l0,1a42.89,42.89,0,0,1,0,14l-.44,2.13-.77-1.42C341.42,338.46,342.47,333.18,341.16,328Z" transform="translate(-178.9 -268.9)"/><path class="cls-11" d="M353.1,399.32c0-3.27,0-6.54-.11-9.81,0-1.42.37-3.08-1.71-3.52a2.75,2.75,0,0,1,1.69-2c3.16,3.11,1.1,6.79,1.1,10.24C354,396,354.72,397.87,353.1,399.32Z" transform="translate(-178.9 -268.9)"/><path class="cls-12" d="M336.91,297l-2,2c-1.62-1.89-2.19-4.26-3.28-6.84C335.44,292,335,295.83,336.91,297Z" transform="translate(-178.9 -268.9)"/><path class="cls-13" d="M351,347c1.7-1.55.65-3.66,1.11-5.47a22.32,22.32,0,0,1,.08,12.83c-1.13-.53-1.24-1.68-1.63-2.66C350.66,350.12,350.07,348.49,351,347Z" transform="translate(-178.9 -268.9)"/><path class="cls-14" d="M313,475l-.87,1a61.24,61.24,0,0,1,0-14.91l.85,1A37.61,37.61,0,0,1,313,475Z" transform="translate(-178.9 -268.9)"/><path class="cls-15" d="M268.89,413.24c1.25-1.48,2.69.28,4-.23.64.92,1.86,1.92,1,3s-2.08,0-2.93-.67A25.28,25.28,0,0,1,268.89,413.24Z" transform="translate(-178.9 -268.9)"/><path class="cls-16" d="M291.09,450c1.39-.07,1.9-.92,2-2.18,1.69.93,1.72,2.59,1.84,4.2-.75.56,0,2.59-1.95,2C292,452.83,290.7,451.81,291.09,450Z" transform="translate(-178.9 -268.9)"/><path class="cls-17" d="M277.49,291.67a5.25,5.25,0,0,1-2.11,5.37.86.86,0,0,1-1.33-.83C274.2,294.18,275.28,292.76,277.49,291.67Z" transform="translate(-178.9 -268.9)"/><path class="cls-18" d="M341.16,347c1.46,3.53,1.61,6.9-1.14,9.94Z" transform="translate(-178.9 -268.9)"/><path class="cls-19" d="M354.08,394.23c-.68-3.38,1.09-7-1.1-10.24.35-.53.58-1.33,1.07-1.52,1-.39.93.54.89,1.11C354.66,387.13,355.74,390.79,354.08,394.23Z" transform="translate(-178.9 -268.9)"/><path class="cls-20" d="M309,495l-2.9,2c-.93-1.61-4.7-2-3.61-3.62,1.69-2.52,3.13,1.59,5.11,1.51A1,1,0,0,1,309,495Z" transform="translate(-178.9 -268.9)"/><path class="cls-21" d="M287,437c-2.47,2-5.36.55-8,1C281.48,436.32,284,435.13,287,437Z" transform="translate(-178.9 -268.9)"/><path class="cls-22" d="M313,480c2.32,2.82,3.32,5.75.66,8.94C314.49,485.88,312.26,483.05,313,480Z" transform="translate(-178.9 -268.9)"/><path class="cls-23" d="M260.78,369.07a7.23,7.23,0,0,1,6.16,6.12Z" transform="translate(-178.9 -268.9)"/><path class="cls-24" d="M326.1,482.43a20.4,20.4,0,0,1,1-8.72C329.11,476.89,327.1,479.6,326.1,482.43Z" transform="translate(-178.9 -268.9)"/><path class="cls-25" d="M306,504.15l.88,3.39-8-2Z" transform="translate(-178.9 -268.9)"/><path class="cls-26" d="M313.13,401c1.83,3.34.49,6.92.78,10.38C312.18,408.07,312.75,404.55,313.13,401Z" transform="translate(-178.9 -268.9)"/><path class="cls-27" d="M307.84,509.24c1.55-.94,1.11.49,1.14,1,.06,1.43.24,2.68,2.07,2.72a4.83,4.83,0,0,1-3.8,1.58Z" transform="translate(-178.9 -268.9)"/><path class="cls-28" d="M344,415.87a6,6,0,0,1,4.71-4.86A9,9,0,0,1,344,415.87Z" transform="translate(-178.9 -268.9)"/><path class="cls-29" d="M333.84,432c-3.27-1.66-1.93-3.3,0-4.94Z" transform="translate(-178.9 -268.9)"/><path class="cls-30" d="M293,454l1.95-2c.22,1.67,1.34,3.17.94,5-1.06.52-1.37-.53-2-.94Z" transform="translate(-178.9 -268.9)"/><path class="cls-31" d="M257.81,357.32c.69-.62-.75-2.34,1.19-2.32a6,6,0,0,1,0,5l0,2c.55,1,0,1.09-.83,1Z" transform="translate(-178.9 -268.9)"/><path class="cls-32" d="M258.18,363l.83-1c1.8,1.86.72,4.15.93,6.24A7.72,7.72,0,0,1,258.18,363Z" transform="translate(-178.9 -268.9)"/><path class="cls-33" d="M322.8,430.29c2.4,1.54.8,3.76.95,5.68a.62.62,0,0,1-.4.13,1.34,1.34,0,0,1-.42-.23Z" transform="translate(-178.9 -268.9)"/><path class="cls-34" d="M349.08,325c-1.31-2.13-3-4.19-1.35-6.89C348.27,320.37,349.54,322.51,349.08,325Z" transform="translate(-178.9 -268.9)"/><path class="cls-35" d="M350.87,366c-1.66-2.36-.9-4.66.15-7,.28-.44.57-.46.85,0Z" transform="translate(-178.9 -268.9)"/><path class="cls-36" d="M295.78,408.93a8.46,8.46,0,0,1,.07-7.88A24.81,24.81,0,0,1,295.78,408.93Z" transform="translate(-178.9 -268.9)"/><path class="cls-37" d="M337.09,381.26c0-2.47,1.34-3.8,3.69-4.25C340.13,378.94,338.6,380.09,337.09,381.26Z" transform="translate(-178.9 -268.9)"/><path class="cls-38" d="M351.87,359H351l0-1a8.16,8.16,0,0,1,0-6l1.18,2.34Z" transform="translate(-178.9 -268.9)"/><path class="cls-39" d="M269.12,356c-1.85-2.23-1.51-4.56-.29-6.92Z" transform="translate(-178.9 -268.9)"/><path class="cls-40" d="M338.13,439.07a5.26,5.26,0,0,1-3.05-3.43C336,436.85,339.72,435.6,338.13,439.07Z" transform="translate(-178.9 -268.9)"/><path class="cls-41" d="M258.15,334l.88,2a5.93,5.93,0,0,1,0,5l-1.16-2.27Z" transform="translate(-178.9 -268.9)"/><path class="cls-42" d="M293.86,456l2,.94a5.39,5.39,0,0,1,0,3.91A5.83,5.83,0,0,1,293.86,456Z" transform="translate(-178.9 -268.9)"/><path class="cls-43" d="M268.83,322.95c-1.23-2.36-1.54-4.69.27-6.93Z" transform="translate(-178.9 -268.9)"/><path class="cls-44" d="M309,495l-1.4-.13,4.3-4.15C312.08,492.92,310.68,494.05,309,495Z" transform="translate(-178.9 -268.9)"/><path class="cls-45" d="M283.84,406.24c2.45,1.42,1.06,3.09.3,4.71Z" transform="translate(-178.9 -268.9)"/><path class="cls-46" d="M264.13,408c2,.16,2.89,1.26,2.79,3.23A6,6,0,0,1,264.13,408Z" transform="translate(-178.9 -268.9)"/><path class="cls-47" d="M295.2,398.67c-2.62-.74-.46-2.77-1.1-4C295.18,395.78,295.21,397.22,295.2,398.67Z" transform="translate(-178.9 -268.9)"/><path class="cls-48" d="M328.88,469c-1.09-1.34-1.61-2.65.22-3.83Z" transform="translate(-178.9 -268.9)"/><path class="cls-49" d="M351,352q0,3,0,6A42,42,0,0,1,351,338q0,4.48,0,9Q351,349.51,351,352Z" transform="translate(-178.9 -268.9)"/><path class="cls-50" d="M343,343q0-7,0-14A21.17,21.17,0,0,1,343,343Z" transform="translate(-178.9 -268.9)"/><path class="cls-51" d="M313,475q0-6.48,0-13A18.08,18.08,0,0,1,313,475Z" transform="translate(-178.9 -268.9)"/><path class="cls-52" d="M323.16,410.75c-.08-2.35-.53-3.64.41-4.92A5.24,5.24,0,0,1,323.16,410.75Z" transform="translate(-178.9 -268.9)"/><path class="cls-53" d="M267,327q0,9,0,18A34.12,34.12,0,0,1,267,327Z" transform="translate(-178.9 -268.9)"/><path class="cls-49" d="M259,341q0-2.49,0-5C260.27,337.69,260.79,339.35,259,341Z" transform="translate(-178.9 -268.9)"/><path class="cls-50" d="M259,360l0-5A3.37,3.37,0,0,1,259,360Z" transform="translate(-178.9 -268.9)"/></svg>