<?xml version="1.0" encoding="utf-8"?>
<!-- Generator: Adobe Illustrator 21.0.2, SVG Export Plug-In . SVG Version: 6.00 Build 0)  -->
<svg version="1.1" baseProfile="tiny" id="Layer_1" xmlns="http://www.w3.org/2000/svg" xmlns:xlink="http://www.w3.org/1999/xlink"
	 x="0px" y="0px" viewBox="0 0 612 792" overflow="scroll" xml:space="preserve">
<g>
	<path fill="#FEFEFE" d="M233.4,428c-0.1,10.1,0.9,16,3.4,21.4c5.3,11.7,15.2,16.6,27.7,13.7c13.6-3.2,24.2-11.5,34.3-20.6
		c2.7-2.5,4.2-3,7.1-0.2c8.7,8.1,18.1,15.1,29.4,19.3c17.4,6.5,31.6-1.5,35-19.6c2.3-12,1.1-23.9-1.7-35.6c-0.8-3.5-0.4-5.3,3.6-6.4
		c10.1-2.9,19.7-7.2,28.3-13.4c18.5-13.4,18.5-32.2,0-45.6c-8.6-6.2-18.2-10.5-28.3-13.4c-3.9-1.1-4.4-3-3.5-6.4
		c2.5-9.6,3.2-19.3,2.7-29.2c-1.2-23.5-17.1-33.7-38.8-24.9c-10,4.1-18.5,10.6-26.3,17.9c-2.9,2.7-4.4,3-7.5,0.2
		c-9-8.3-18.6-15.6-30.5-19.5c-17.4-5.6-30.5,2.1-33.9,20.2c-2.2,12-1,23.9,1.8,35.6c0.8,3.3,0.3,5-3.4,6.1
		c-10.1,3-19.7,7.2-28.3,13.4c-18.7,13.5-18.7,32.4,0,45.9c8.5,6.1,17.9,10.3,27.9,13.2c4.2,1.2,4.6,3.1,3.7,6.8
		C234.3,413.9,233.1,421.3,233.4,428z"/>
	<path fill="#64DAFA" d="M233.4,428c-0.3-6.6,1-14,2.7-21.3c0.9-3.6,0.5-5.6-3.7-6.8c-10-2.9-19.4-7.1-27.9-13.2
		c-18.8-13.5-18.8-32.4,0-45.9c8.6-6.2,18.2-10.4,28.3-13.4c3.7-1.1,4.2-2.8,3.4-6.1c-2.8-11.7-4-23.6-1.8-35.6
		c3.3-18.1,16.4-25.8,33.9-20.2c11.9,3.8,21.5,11.2,30.5,19.5c3.1,2.9,4.6,2.5,7.5-0.2c7.8-7.3,16.3-13.8,26.3-17.9
		c21.7-8.8,37.6,1.4,38.8,24.9c0.5,9.9-0.2,19.6-2.7,29.2c-0.9,3.5-0.4,5.3,3.5,6.4c10.1,2.9,19.7,7.2,28.3,13.4
		c18.5,13.4,18.5,32.2,0,45.6c-8.6,6.2-18.2,10.5-28.3,13.4c-3.9,1.1-4.4,2.9-3.6,6.4c2.8,11.7,4,23.6,1.7,35.6
		c-3.4,18.2-17.7,26.1-35,19.6c-11.3-4.2-20.8-11.2-29.4-19.3c-3-2.8-4.4-2.3-7.1,0.2c-10.1,9-20.7,17.3-34.3,20.6
		c-12.5,3-22.5-2-27.7-13.7C234.3,444,233.3,438.1,233.4,428z M302.4,399.9c0-0.1,0-0.1,0-0.2c5.5,0,11-0.1,16.5,0
		c2.8,0.1,4.7-1.1,6.1-3.4c6.1-9.7,12-19.5,17.1-29.8c1-2,1-3.5,0-5.5c-5.3-10.4-11-20.5-17.5-30.2c-1.5-2.2-3.2-3.1-5.8-3.1
		c-11,0.1-22,0.1-32.9,0c-2.8,0-4.7,1.1-6.1,3.4c-6.1,9.7-12,19.6-17.2,29.8c-1.1,2.2-0.9,3.9,0.2,6c4,7.1,7.5,14.5,11.9,21.3
		c9.1,13.9,3.6,11,20.6,11.6C297.7,399.9,300.1,399.9,302.4,399.9z M258.8,454c3.2,0.3,7-1,10.6-2.6c8.9-4,16.3-10.2,23.6-16.5
		c2.5-2.1,2-3.5,0.1-5.6c-5-5.4-9.7-11-13.7-17.1c-1.9-2.8-4.3-4-7.4-4.2c-7.5-0.5-14.8-1.8-22.1-3.4c-2.6-0.6-3.6,0-4.1,2.4
		c-2.3,10.6-3.7,21.3-2.2,32.1C244.9,448.9,249.9,453.9,258.8,454z M343.7,453.9c11.4,0.2,16.6-5.4,17.8-16.1
		c1.1-10.2-0.3-20.2-2.2-30.1c-0.5-2.5-1.2-4-4.6-3.1c-4.8,1.3-9.8,2.4-14.7,2.4c-9.1,0-15.3,4-19.4,11.8c-0.8,1.4-2.2,2.5-3.1,3.9
		c-2.3,3.5-8,6.2-7,10c0.9,3.5,5.8,6.1,9.2,8.7C327.6,447.5,335.7,453.3,343.7,453.9z M361.7,294.5c-0.1-1.7-0.1-3.3-0.3-5
		c-1.4-13.6-10.3-19.2-23.2-14.6c-1.1,0.4-2.1,0.9-3.2,1.4c-8.9,4-16.3,10.2-23.5,16.6c-2,1.7-1.9,2.9-0.2,4.8
		c4.9,5.8,9.8,11.8,14.4,17.8c1.8,2.3,3.7,3.6,6.5,3.8c7.8,0.6,15.5,1.9,23.1,3.6c2.6,0.6,3.3-0.4,3.7-2.4
		C360.9,312.1,362.2,303.4,361.7,294.5z M237,336.1c-10.2,3.4-21.3,7.4-30.4,15.5c-8.5,7.5-8.4,16.9,0,24.4
		c8.8,7.8,19.5,11.8,30.4,15.5c1.9,0.6,3,0.2,3.7-1.9c2.6-8.1,5.6-16,9.2-23.7c0.7-1.5,0.7-2.8,0-4.3c-3.6-7.7-6.5-15.6-9.2-23.6
		C240.2,336.5,239.7,335.4,237,336.1z M404.7,363.6c-0.1-4.9-2.8-8.8-6.5-12.1c-8.6-7.7-19.2-11.6-29.9-15.3
		c-2.5-0.9-3.5-0.1-4.3,2.3c-2.4,7.8-5.4,15.3-8.8,22.7c-0.7,1.6-0.9,3-0.1,4.7c3.5,7.5,6.5,15.3,9,23.2c0.7,2.2,1.6,3,3.9,2.2
		c10.9-3.7,21.6-7.7,30.4-15.5C401.9,372.7,404.5,368.9,404.7,363.6z M243.2,298.5c-0.4,7.2,1.1,14.2,2.4,21.2
		c0.5,2.9,1.5,4.1,5,3.2c7.1-1.8,14.3-2.8,21.6-3.4c1.8-0.2,4-0.1,5.5-1.9c5.5-6.9,11-13.8,16.5-20.6c1.1-1.3,1.2-2.1-0.1-3.3
		c-8.8-8.2-18-15.9-29.8-19.4c-10.4-3.1-16.7,0.6-19.9,10.8C243,289.5,243.3,294,243.2,298.5z M256.1,352.4
		c4.6-8.1,8.7-15.2,13.1-22.8c-6.3,0.4-11.9,1.6-17.6,2.8c-2.4,0.5-2.3,1.7-1.6,3.6C252,341.1,253.8,346.3,256.1,352.4z
		 M348.7,352.5c2.2-6.1,4.1-11.2,6-16.3c0.5-1.3,1.6-3-0.9-3.5c-5.8-1.3-11.6-2.7-18.1-2.9C340.1,337.4,344.1,344.4,348.7,352.5z
		 M256.1,375c-2.2,6.1-4.1,11.3-6,16.4c-0.7,1.8-1.1,3.1,1.5,3.6c5.7,1.2,11.3,2.4,17.7,2.9C264.9,390.3,260.8,383.2,256.1,375z
		 M348.7,375.1c-4.6,8-8.7,15.1-13.1,22.8c6.5-0.4,12.3-1.6,18-2.9c1.8-0.4,1.9-1.4,1.4-2.9C353,386.7,351,381.3,348.7,375.1z
		 M315.4,317.7c-4-4.8-7.6-9.1-11.1-13.4c-1.1-1.4-2.2-1.9-3.6-0.2c-3.6,4.5-7.7,8.5-10.8,13.6C298.4,317.7,306.5,317.7,315.4,317.7
		z M289.3,409.7c4.2,5.1,7.8,9.3,11.4,13.6c0.9,1.1,1.9,1.9,3.2,0.3c3.7-4.5,7.9-8.6,11.1-14C306.4,409.7,298.4,409.7,289.3,409.7z"
		/>
	<path fill="#FCFEFE" d="M361.7,294.5c0.5,8.9-0.8,17.5-2.7,26.1c-0.4,2-1.1,3-3.7,2.4c-7.6-1.7-15.3-3-23.1-3.6
		c-2.8-0.2-4.8-1.5-6.5-3.8c-4.6-6.1-9.4-12-14.4-17.8c-1.6-1.9-1.7-3.1,0.2-4.8c7.2-6.4,14.6-12.6,23.5-16.6c1.1-0.5,2.1-1,3.2-1.4
		c12.8-4.6,21.7,1,23.2,14.6C361.6,291.2,361.6,292.9,361.7,294.5z"/>
	<path fill="#F9FDFE" d="M256.1,352.4c-2.3-6.2-4.1-11.3-6-16.4c-0.7-1.9-0.8-3.1,1.6-3.6c5.6-1.2,11.2-2.4,17.6-2.8
		C264.8,337.3,260.7,344.4,256.1,352.4z"/>
	<path fill="#F9FDFE" d="M348.7,352.5c-4.6-8-8.6-15-13-22.7c6.5,0.2,12.3,1.6,18.1,2.9c2.4,0.6,1.3,2.2,0.9,3.5
		C352.9,341.3,351,346.4,348.7,352.5z"/>
	<path fill="#F9FDFE" d="M269.2,397.9c-6.4-0.5-12-1.7-17.7-2.9c-2.5-0.5-2.1-1.9-1.5-3.6c1.9-5.1,3.8-10.2,6-16.4"/>
	<path fill="#FBFDFE" d="M315.4,317.7c-8.9,0-17,0-25.5,0c3.1-5.2,7.3-9.2,10.8-13.6c1.4-1.7,2.4-1.2,3.6,0.2
		C307.9,308.5,311.4,312.8,315.4,317.7z"/>
	<path fill="#FBFDFE" d="M289.3,409.7c9.1,0,17.1,0,25.6,0c-3.2,5.4-7.4,9.5-11.1,14c-1.3,1.6-2.2,0.8-3.2-0.3
		C297.1,419.1,293.5,414.8,289.3,409.7z"/>
	<path fill="#63DAFA" d="M302.3,383.8c-11.1,0-19.9-8.9-19.9-20c0-11.3,9-20.2,20.4-20.1c11,0.1,19.8,9.1,19.7,20.3
		C322.4,375,313.4,383.8,302.3,383.8z"/>
</g>
</svg>
